<?xml version="1.0" encoding="UTF-8"?>
<!-- Generated by Pixelmator Pro 4.0 -->
<svg width="8821" height="2713" viewBox="0 0 8821 2713" xmlns="http://www.w3.org/2000/svg" xmlns:xlink="http://www.w3.org/1999/xlink">
    <g id="g1">
        <path id="path1" fill="#000000" fill-rule="evenodd" stroke="none" d="M 1 2712 L 8860 2712 L 8846.958984 1154.455078 L 8860 0 L 1 0 Z"/>
        <mask id="mask1" maskUnits="userSpaceOnUse" maskContentUnits="userSpaceOnUse" mask-type="alpha">
            <path id="path2" fill="#000000" fill-rule="evenodd" stroke="none" d="M 1 2712 L 8860 2712 L 8846.958984 1154.455078 L 8860 0 L 1 0 Z"/>
        </mask>
        <g id="g2" mask="url(#mask1)">
            <path id="NERDTECHNO" fill="#e8e8e8" stroke="none" d="M 4421.90625 2871.546875 L 4800.09375 2871.546875 L 5569.90625 2875.546875 L 5755.890625 1556.148438 L 6104.453125 1556.09375 C 6104.45459 1556.09082 6333.071777 2850.749756 6346.122559 2875.54541 L 6783.59375 2871.679688 L 6783.59375 2875.546875 L 8001.171875 2867.546875 L 8821 2814.375 L 9553 1622 L 7929 -8 C 7929 -8 7798.598633 2.528076 6826.58252 0.11377 C 6818.817871 -9.85498 6810.347168 -15 6801.09082 -15 L 4410.539063 -4.117188 L 4410.539063 -0.117188 L 2455.265625 -0.117188 L 2455.265625 -8.3125 L 1658.09375 -19 L 1706 1548 L 695.90625 -18.757813 L 1 -18.757813 L 1 2867.6875 L 760.710938 2867.6875 L 741 1548 L 1350.546875 2815.203125 L 2295.992188 2815.203125 L 2295.992188 2875.546875 L 4421.90625 2875.546875 Z M 7283.046875 345.726563 L 7928.078125 345.726563 L 8641 1548.054688 L 7931.734375 2103.789063 L 7283.046875 2103.789063 Z M 4962.90625 978.273438 C 4836.916992 852.280762 4836.916992 569.719238 4962.90918 443.727051 C 5088.901367 317.734863 5371.462402 317.734863 5497.45459 443.727051 C 5623.446289 569.719238 5623.446289 852.280762 5497.45459 978.272461 C 5371.462402 1104.264648 5088.901367 1104.264648 4962.90625 978.273438 Z M 3744.851563 1558.101563 L 3270.617188 1558.101563 L 3270.617188 1067.320313 L 2714.671875 1075.320313 L 2714.671875 360.242188 L 4410.539063 353.273438 L 4410.539063 2105.335938 L 3744.851563 2105.335938 Z"/>
        </g>
    </g>
</svg>
